<svg width="94" height="94" xmlns="http://www.w3.org/2000/svg">
 <!-- Created with Method Draw - http://github.com/duopixel/Method-Draw/ -->
 <g>
  <title>background</title>
  <rect fill="none" id="canvas_background" height="96" width="96" y="-1" x="-1"/>
 </g>
 <g>
  <title>Layer 1</title>
  <circle fill="#ffe680" stroke-width="0.039504" stroke-linecap="round" stroke-miterlimit="4.009524" stroke-dashoffset="0" id="circle2050-8" cx="46.945419" cy="46.945423" r="46.925671"/>
  <path fill="#ffffff" stroke-width="0.116436" d="m83.097789,48.971273c-2.5231,-9.46625 -6.525,-18.53076 -11.8776,-26.89901c-2.5755,-4.02516 -4.1998,-7.35058 -9.3207,-7.35058c-4.5049,0 -8.1563,3.42553 -8.1563,7.65097l0,6.99899l-3.8284,-2.55227a1.86251,1.86251 0 0 1 -0.829,-1.54976l0,-19.86284c0,-1.02926 -0.8337,-1.86294 -1.863,-1.86294l-1.863,0c-1.0293,0 -1.863,0.83368 -1.863,1.86294l0,19.86284c0,0.62292 -0.3108,1.20394 -0.829,1.54976l-3.8284,2.55227l0,-6.99899c0,-4.22544 -3.6514,-7.65097 -8.1563,-7.65097c-5.1209,0 -6.7452,3.32542 -9.3207,7.35058c-5.3526,8.36825 -9.3545,17.43276 -11.8776,26.89901c-0.3016,1.12827 -0.453,2.28682 -0.453,3.44999c0,7.12938 7.2749,12.277 14.5825,10.31856l6.9279,-1.85715c4.9112,-1.31573 8.2972,-5.52721 8.2972,-10.31855l0,-10.18698l-9.9948,6.66363a0.93056,0.93056 0 0 1 -1.2913,-0.2585l-1.034,-1.54974a0.93056,0.93056 0 0 1 0.2585,-1.29129l19.5135,-13.00821l19.5135,13.00821a0.93079,0.93079 0 0 1 0.2585,1.29129l-1.034,1.54974a0.93079,0.93079 0 0 1 -1.2913,0.2585l-9.9948,-6.66363l0,10.18698c0,4.79134 3.3859,9.00167 8.2972,10.31855l6.9279,1.85715c7.3075,1.95844 14.5825,-3.18918 14.5825,-10.31856c0,-1.16317 -0.1514,-2.32172 -0.453,-3.44999z" id="path1729-0"/>
  <text font-style="normal" font-weight="normal" font-size="32.561764px" font-family="Arial" fill="#ffffff" stroke-width="1.526333" id="text2277-4" y="85.161573" x="23.505739" xml:space="preserve">
   <tspan font-style="italic" font-weight="bold" font-family="Arial" fill="#ffffff" stroke-width="1.526333" y="85.161573" x="23.505739" id="svg_5">
    <tspan font-size="27.944895px" stroke-width="1.526333" id="svg_3">CO</tspan>
    <tspan font-style="italic" font-weight="bold" font-size="19.960638px" font-family="Arial" fill="#ffffff" stroke-width="1.526333" id="svg_4">2</tspan>
   </tspan>
  </text>
 </g>
</svg>