<svg width="94" height="94" xmlns="http://www.w3.org/2000/svg">
 <!-- Created with Method Draw - http://github.com/duopixel/Method-Draw/ -->
 <g>
  <title>background</title>
  <rect fill="none" id="canvas_background" height="96" width="96" y="-1" x="-1"/>
 </g>
 <g>
  <title>Layer 1</title>
  <g id="g6034">
   <circle fill="#00ff66" stroke-width="0.039504" stroke-linecap="round" stroke-miterlimit="4.009524" stroke-dashoffset="0" r="46.925671" cy="46.925678" cx="46.925657" id="svg_1"/>
   <path fill="#ffffff" stroke-width="0.114823" id="svg_2" d="m49.821747,28.153378c3.0428,0 5.5115,-2.46871 5.5115,-5.51152c0,-3.04281 -2.4687,-5.5115 -5.5115,-5.5115c-3.0428,0 -5.5115,2.46869 -5.5115,5.5115c0,3.04281 2.4687,5.51152 5.5115,5.51152zm10.8508,17.12012l-2.6754,-1.35492l-1.1138,-3.37579c-1.6879,-5.12111 -6.3956,-8.70359 -11.7349,-8.71508c-4.1337,-0.0115 -6.4186,1.15971 -10.713,2.89354c-2.4802,0.99897 -4.5126,2.89354 -5.7067,5.30484l-0.7693,1.5616c-0.8957,1.8142 -0.1723,4.01879 1.6304,4.9259c1.7913,0.90711 3.9729,0.17224 4.88,-1.64196l0.7694,-1.5616c0.4018,-0.80377 1.0678,-1.4353 1.8945,-1.76829l3.0773,-1.24008l-1.7453,6.96977c-0.5971,2.38831 0.046,4.9259 1.7109,6.75158l6.8778,7.50944c0.8268,0.90711 1.4124,1.99792 1.7109,3.1806l2.1013,8.41656c0.4937,1.96346 2.4916,3.1691 4.4551,2.67535c1.9635,-0.49372 3.1691,-2.49165 2.6754,-4.45512l-2.5491,-10.21927c-0.2985,-1.18267 -0.8841,-2.28499 -1.7108,-3.1806l-5.2245,-5.7067l1.975,-7.88836l0.6315,1.89459c0.6085,1.84864 1.9175,3.37579 3.6399,4.24845l2.6753,1.35491c1.7913,0.9071 3.9729,0.17225 4.88,-1.64197c0.8842,-1.80273 0.1608,-4.03027 -1.6419,-4.93739zm-26.2831,16.15561c-0.3674,0.93007 -0.9185,1.76829 -1.6304,2.46869l-5.7412,5.75264c-1.4353,1.43529 -1.4353,3.76621 0,5.2015c1.4353,1.43528 3.7547,1.43528 5.19,0l6.8205,-6.8205c0.7004,-0.70041 1.2516,-1.53862 1.6305,-2.46869l1.5501,-3.88103c-6.3497,-6.92383 -4.4437,-4.79961 -5.4426,-6.16599l-2.3769,5.91338z"/>
  </g>
 </g>
</svg>