<?xml version="1.0" encoding="UTF-8" standalone="no"?><!-- Generator: Gravit.io --><svg xmlns="http://www.w3.org/2000/svg" xmlns:xlink="http://www.w3.org/1999/xlink" style="isolation:isolate" viewBox="155.966 141.512 93.851 95.693" width="93.851pt" height="95.693pt"><defs><clipPath id="_clipPath_pzljAA2p0eJlFyouao0tm9F7mMWdo4AA"><rect x="155.966" y="141.512" width="93.851" height="95.693"/></clipPath></defs><g clip-path="url(#_clipPath_pzljAA2p0eJlFyouao0tm9F7mMWdo4AA)"><circle vector-effect="non-scaling-stroke" cx="202.8918" cy="188.4379" r="46.925670999999994" fill="rgb(255,230,128)"/><path d=" M 239.044 190.464 C 236.521 180.997 232.519 171.933 227.167 163.565 C 224.591 159.54 222.967 156.214 217.846 156.214 C 213.341 156.214 209.69 159.64 209.69 163.865 L 209.69 170.864 L 205.861 168.312 C 205.343 167.966 205.032 167.385 205.032 166.762 L 205.032 146.899 C 205.032 145.87 204.198 145.036 203.169 145.036 L 201.306 145.036 C 200.277 145.036 199.443 145.87 199.443 146.899 L 199.443 166.762 C 199.443 167.385 199.132 167.966 198.614 168.312 L 194.786 170.864 L 194.786 163.865 C 194.786 159.64 191.134 156.214 186.629 156.214 C 181.509 156.214 179.884 159.54 177.309 163.565 C 171.956 171.933 167.954 180.997 165.431 190.464 C 165.13 191.592 164.978 192.751 164.978 193.914 C 164.978 201.043 172.253 206.191 179.561 204.232 L 186.489 202.375 C 191.4 201.059 194.786 196.848 194.786 192.057 L 194.786 181.87 L 184.791 188.533 C 184.586 188.67 184.334 188.72 184.092 188.672 C 183.85 188.623 183.637 188.48 183.5 188.275 L 182.466 186.725 C 182.329 186.52 182.279 186.268 182.327 186.026 C 182.376 185.784 182.519 185.571 182.724 185.434 L 202.238 172.426 L 221.751 185.434 C 221.957 185.571 222.1 185.784 222.148 186.026 C 222.197 186.268 222.147 186.52 222.01 186.725 L 220.976 188.275 C 220.839 188.48 220.626 188.623 220.384 188.672 C 220.141 188.72 219.89 188.67 219.684 188.533 L 209.69 181.87 L 209.69 192.057 C 209.69 196.848 213.075 201.058 217.987 202.375 L 224.915 204.232 C 232.222 206.191 239.497 201.043 239.497 193.914 C 239.497 192.751 239.346 191.592 239.044 190.464 L 239.044 190.464 Z " fill="rgb(255,255,255)"/><text transform="matrix(1,0,0,1,169.452,227.654)" style="font-family:'Open Sans';font-weight:700;font-size:32.6px;font-style:italic;font-variant-ligatures:none;fill:#FFFFFF;stroke:none;">CO2</text></g></svg>