<svg width="94" height="94" xmlns="http://www.w3.org/2000/svg">
 <!-- Created with Method Draw - http://github.com/duopixel/Method-Draw/ -->
 <g>
  <title>background</title>
  <rect fill="none" id="canvas_background" height="96" width="96" y="-1" x="-1"/>
 </g>
 <g>
  <title>Layer 1</title>
  <g id="g6070">
   <circle r="46.925671" cy="46.925675" cx="46.925672" id="svg_1" stroke-dashoffset="0" stroke-miterlimit="4.009524" stroke-linecap="round" stroke-width="0.039504" fill="#5599ff"/>
   <path d="m60.170232,49.272935c-2.2181,-2.81835 -5.9943,-3.63502 -9.0886,-2.17316c-1.7213,-1.78502 -4.1171,-2.5588 -6.4399,-2.23358l0,-8.37882c0,-4.20386 -3.3837,-7.62392 -7.5427,-7.62392c-4.159,0 -7.5427,3.42006 -7.5427,7.62392l0,18.33487c-2.2654,-0.84318 -4.9239,-0.57965 -7.0644,1.00954c-3.3403,2.48005 -4.0729,7.20667 -1.6557,10.59977l12.4827,17.52377c1.4136,1.98404 3.7018,3.16859 6.1209,3.16859l20.2871,0c3.505,0 6.5514,-2.44649 7.346,-5.89398l3.1211,-13.54089a7.72327,7.72327 0 0 0 0.1966,-1.73006l0,-9.55835c0,-5.33039 -5.3054,-9.02048 -10.2204,-7.1277zm-31.5422,11.41723l3.0867,4.33301c1.0235,1.4367 3.3034,0.7154 3.3034,-1.05631l0,-27.47949c0,-2.8584 4.1614,-2.86295 4.1614,0l0,19.91326c0,1.00544 0.8151,1.82063 1.8207,1.82063l0.7802,0c1.0056,0 1.8207,-0.81519 1.8207,-1.82063l0,-3.98266c0,-2.8584 4.1614,-2.86295 4.1614,0l0,3.98266c0,1.00544 0.8151,1.82063 1.8206,1.82063l0.7805,0c1.0056,0 1.8206,-0.81519 1.8206,-1.82063l0,-2.38961c0,-2.8584 4.1615,-2.86295 4.1615,0l0,2.38961c0,1.00544 0.815,1.82063 1.8206,1.82063l0.7803,0c1.0055,0 1.8206,-0.81519 1.8206,-1.82063c0,-2.85853 4.1614,-2.86297 4.1614,0l0,9.55835c0,0.16931 -0.019,0.33875 -0.057,0.50329l-3.1213,13.54111c-0.2251,0.97656 -1.0571,1.65861 -2.0234,1.65861l-20.287,0c-0.6565,0 -1.2817,-0.32749 -1.6724,-0.87585l-12.4841,-17.52365c-1.6393,-2.30117 1.7061,-4.87226 3.3447,-2.57233l-0.0001,0zm10.828,13.68928l0,-10.92384c0,-1.00557 0.7133,-1.82064 1.5931,-1.82064l0.6827,0c0.8799,0 1.5931,0.81507 1.5931,1.82064l0,10.92384c0,1.00555 -0.7132,1.82063 -1.5931,1.82063l-0.6827,0c-0.8799,0 -1.5931,-0.81508 -1.5931,-1.82063zm8.583,0l0,-10.92384c0,-1.00557 0.7132,-1.82064 1.593,-1.82064l0.6828,0c0.8798,0 1.593,0.81507 1.593,1.82064l0,10.92384c0,1.00555 -0.7132,1.82063 -1.593,1.82063l-0.6828,0c-0.8798,0 -1.593,-0.81508 -1.593,-1.82063zm8.583,0l0,-10.92384c0,-1.00557 0.7133,-1.82064 1.5931,-1.82064l0.6828,0c0.8798,0 1.593,0.81507 1.593,1.82064l0,10.92384c0,1.00555 -0.7132,1.82063 -1.593,1.82063l-0.6828,0c-0.8798,0 -1.5931,-0.81508 -1.5931,-1.82063z" id="svg_2" stroke-miterlimit="4" stroke-width="1.422196" stroke="#ffffff" fill="none"/>
   <text id="svg_5" y="40.850635" x="50.571422" xml:space="preserve" stroke-width="1.526333" fill="#ffffff" font-family="Arial" font-size="32.561764px" font-weight="normal" font-style="normal">
    <tspan y="40.850635" x="50.571422" id="svg_4" stroke-width="1.526333" fill="#ffffff" font-family="Arial" font-weight="bold" font-style="italic">O
     <tspan id="svg_3" stroke-width="1.526333" fill="#ffffff" font-family="Arial" font-size="22.049232px" font-weight="bold" font-style="italic">2</tspan></tspan>
   </text>
   <rect ry="1.53559" y="10.008375" x="26.691542" height="29.629168" width="20.717493" id="svg_6" stroke-dashoffset="0" stroke-miterlimit="4" stroke-linecap="round" stroke-width="3.909201" fill="#ffffff"/>
   <rect ry="1.427485" y="20.066295" x="30.646132" height="15.073433" width="12.880935" id="svg_7" stroke-dashoffset="0" stroke-miterlimit="4" stroke-linecap="round" stroke-width="3.561592" stroke="#5599ff" fill="#ffffff"/>
   <rect ry="0.920517" y="12.264545" x="32.805562" height="2.218361" width="7.746439" id="svg_8" stroke-dashoffset="0" stroke-miterlimit="4" stroke-linecap="round" stroke-width="1.059574" stroke="#5599ff" fill="#ffffff"/>
   <text id="svg_10" y="27.484425" x="32.602192" xml:space="preserve" stroke-width="0.399008" fill="#5599ff" font-family="Arial" font-size="8.512171px" font-weight="normal" font-style="normal">
    <tspan y="27.484425" x="32.602192" id="svg_9" stroke-width="0.399008" fill="#5599ff">98</tspan>
   </text>
   <text id="svg_12" y="34.327075" x="33.960832" xml:space="preserve" stroke-width="0.399008" fill="#5599ff" font-family="Arial" font-size="8.512171px" font-weight="normal" font-style="normal">
    <tspan y="34.327075" x="33.960832" id="svg_11" stroke-width="0.399008" fill="#5599ff" font-size="6.387404px">67</tspan>
   </text>
  </g>
 </g>
</svg>