<svg width="94" height="94" xmlns="http://www.w3.org/2000/svg">
 <!-- Created with Method Draw - http://github.com/duopixel/Method-Draw/ -->
 <g>
  <title>background</title>
  <rect fill="none" id="canvas_background" height="96" width="96" y="-1" x="-1"/>
 </g>
 <g>
  <title>Layer 1</title>
  <g id="g6030">
   <circle fill="#ff5555" stroke-width="0.039504" stroke-linecap="round" stroke-miterlimit="4.009524" stroke-dashoffset="0" id="svg_1" cx="46.925657" cy="46.925671" r="46.925671"/>
   <path fill="#ffffff" stroke-width="0.129183" id="svg_2" d="m55.122947,49.91905l-6.4204,12.84081c-0.7751,1.56312 -3.0229,1.51145 -3.7334,-0.0775l-7.3505,-16.31584l-3.8755,9.26243l-12.1561,0l23.5759,24.09267c0.9172,0.94304 2.4028,0.94304 3.32,0l23.5889,-24.09267l-14.0939,0l-2.855,-5.7099zm19.8297,-21.94822l-0.3101,-0.32296c-6.6529,-6.79502 -17.5431,-6.79502 -24.2089,0l-3.6042,3.69464l-3.6042,-3.68172c-6.653,-6.80794 -17.556,-6.80794 -24.209,0l-0.31,0.31004c-6.2912,6.43332 -6.5625,16.67755 -0.943,23.52427l13.2283,0l4.6377,-11.1356c0.6976,-1.66647 3.0487,-1.70521 3.798,-0.0517l7.5184,16.70339l6.33,-12.64703c0.7622,-1.52436 2.9325,-1.52436 3.6946,0l3.5655,7.13092l15.3599,0c5.6195,-6.84672 5.3482,-17.09095 -0.943,-23.52427l0,0.00002z"/>
  </g>
 </g>
</svg>