<svg width="94" height="94" xmlns="http://www.w3.org/2000/svg">
 <!-- Created with Method Draw - http://github.com/duopixel/Method-Draw/ -->
 <g>
  <title>background</title>
  <rect fill="none" id="canvas_background" height="96" width="96" y="-1" x="-1"/>
 </g>
 <g>
  <title>Layer 1</title>
  <g id="g5988" transform="matrix(0.14970479,0,0,0.14970479,-47.13159,-1008.7157) ">
   <circle r="313.454712" cy="7051.487054" cx="628.284888" id="svg_1" stroke-dashoffset="0" stroke-miterlimit="4.009524" stroke-linecap="round" stroke-width="0.263881" fill="#a0892c"/>
   <path id="svg_2" d="m449.336288,7051.053854c0,-208.7116 0.086,-213.0516 3.5681,-214.9234c2.0566,-1.1006 16.8039,-1.9094 34.8163,-1.9094l31.2475,0l1.1477,-7.1781c0.6419,-4.032 2.4315,-7.6702 4.0764,-8.3018c1.6107,-0.6163 16.7706,-1.1238 33.6892,-1.1238l30.7613,0l2.5154,-5.682c1.383,-3.1256 5.8609,-8.1067 9.951,-11.0689c7.114,-5.1539 8.2908,-5.3867 27.1753,-5.3867c18.8854,0 20.0622,0.231 27.1761,5.3867c4.0901,2.9622 8.568,7.9433 9.9511,11.0689l2.5153,5.682l30.7613,0c16.9178,0 32.0785,0.505 33.6892,1.1238c1.645,0.6333 3.4312,4.2698 4.0765,8.3018l1.1477,7.1781l31.2474,0c18.0124,0 32.7597,0.8131 34.8164,1.9094c3.4961,1.8718 3.568,6.2118 3.568,214.9234l0,213.0131l-178.949,0l-178.9482,0l0,-213.0131zm339.4492,-0.086l0,-198.3197l-25.8281,0c-24.5974,0 -25.8273,0.1797 -25.8273,3.6896c0,3.3926 1.2299,3.6896 15.2702,3.6896c24.9535,0 23.4711,-3.4628 23.4711,54.8435c0,43.0985 -0.3765,49.5114 -3.0528,52.4727c-3.747,4.1407 -8.6442,4.3272 -12.4964,0.4793c-2.47,-2.47 -2.8988,-9.2878 -2.8988,-46.1206l0,-43.2217l-10.1471,0c-8.4927,0 -10.1462,0.5306 -10.1462,3.2788c0,1.8041 -1.2923,5.1249 -2.8723,7.3801l-2.8714,4.0995l-103.1019,0l-103.1011,0l-2.8723,-4.0995c-1.579,-2.2552 -2.8714,-5.576 -2.8714,-7.3801c0,-2.7447 -1.6535,-3.2788 -10.147,-3.2788l-10.1462,0l0,120.4673c0,91.2381 -0.5392,121.0048 -2.2142,122.6815c-3.5073,3.5081 -12.16,2.6899 -14.3245,-1.354c-1.2624,-2.3596 -1.9094,-46.0752 -1.9094,-129.0336l0,-125.4656l4.0996,-2.8722c2.9099,-2.0378 8.5355,-2.8714 19.3706,-2.8714c14.0413,0 15.2711,-0.2996 15.2711,-3.6897c0,-3.5141 -1.2298,-3.6896 -25.8281,-3.6896l-25.8273,0l0,198.3189l0,198.3197l160.5002,0l160.501,0l0,-198.324zm-303.9875,186.2239c-4.0611,-2.8449 -4.0996,-3.331 -4.0996,-51.777c0,-30.1835 0.7275,-50.2706 1.9094,-52.4727c2.1645,-4.0448 10.8172,-4.863 14.3245,-1.3548c1.5979,1.5979 2.2142,14.4306 2.2142,46.1205l0,43.9073l129.138,0l129.1389,0l0,-120.7938l0,-120.7943l4.6122,-3.022c4.2725,-2.7987 4.9512,-2.7987 9.2236,0l4.6122,3.022l0,127.1464l0,127.1465l-4.1004,2.8723c-3.6228,2.5376 -20.3164,2.8714 -143.4865,2.8714c-123.1693,0 -139.8628,-0.3338 -143.4865,-2.8714l0,-0.0004zm50.4546,-46.148c-1.5945,-1.5944 -2.8988,-4.441 -2.8988,-6.3256c0,-1.8838 1.3043,-4.7304 2.8988,-6.3248c2.5239,-2.524 11.1835,-2.8988 66.9676,-2.8988c68.4507,0 68.4961,0.01 68.4961,9.2236c0,9.2184 0,9.2244 -68.4961,9.2244c-55.7841,0 -64.4437,-0.3766 -66.9676,-2.8988zm0,-33.2073c-1.5945,-1.5945 -2.8988,-4.4411 -2.8988,-6.3248c0,-1.8846 1.3043,-4.7312 2.8988,-6.3257c2.5573,-2.5573 13.6364,-2.8988 93.9545,-2.8988c80.3181,0 91.3981,0.3424 93.9545,2.8988c3.7033,3.7033 3.7033,8.948 0,12.6505c-2.5564,2.5573 -13.6364,2.8988 -93.9545,2.8988c-80.3181,0 -91.3972,-0.3424 -93.9545,-2.8988zm73.158,-43.5641c-6.3659,-0.873 -16.2434,-3.652 -21.9511,-6.1759c-10.3294,-4.5686 -10.3901,-4.5728 -12.9757,-0.8807c-4.3426,6.2007 -12.3817,4.7774 -21.7405,-3.8496c-19.4888,-17.9636 -30.6312,-43.3981 -31.036,-70.8463c-0.428,-28.7432 7.9055,-51.3079 26.3998,-71.5079c9.2227,-10.0744 10.3045,-12.03 8.6716,-15.6768c-3.0623,-6.84 0.861,-12.0967 13.7331,-18.3993c19.3433,-9.4701 32.6647,-12.0676 56.9283,-11.097c31.7421,1.2683 45.9862,7.7891 40.9871,18.7612c-2.5932,5.6924 -7.2928,6.0724 -22.0469,1.7837c-14.7302,-4.2819 -41.9405,-2.7799 -56.9232,3.1435l-11.2323,4.4402l24.1463,38.1979l24.1464,38.1978l45.8689,0.086l45.8698,0.086l-1.3103,-8.7349c-2.9048,-19.3715 -18.7682,-45.4547 -35.0748,-57.6729c-7.6155,-5.706 -8.4285,-7.0232 -7.9364,-12.867c0.5135,-6.0749 1.0107,-6.5482 7.4673,-7.0822c6.4584,-0.5307 7.8697,0.3851 21.2339,13.8358c20.4919,20.6262 29.8584,39.2976 33.6669,67.1156c2.8312,20.6767 0.98,23.4788 -16.0071,24.2311l-12.3261,0.5477l-2.3989,10.5887c-9.6088,42.4216 -51.1257,69.9597 -96.1601,63.7847l0,-0.0094zm43.3424,-25.0048c12.9962,-6.3642 26.7884,-21.4324 31.7464,-34.6854c6.2093,-16.596 7.927,-15.6066 -27.0811,-15.5972l-30.9008,0.01l-18.8529,24.7189l-18.852,24.7198l7.7832,3.1607c17.6307,7.161 38.5522,6.2948 56.1572,-2.3254l0,-0.0014zm-65.2199,-30.5619c11.8023,-15.5304 21.459,-28.916 21.459,-29.7471c0,-1.9967 -36.867,-59.8494 -38.9656,-61.146c-1.9616,-1.2127 -11.2836,8.4919 -17.6649,18.3907c-18.5773,28.8168 -15.6597,71.5199 6.5362,95.6654c2.565,2.791 5.2293,5.0735 5.9199,5.0735c0.6933,0 10.9131,-12.706 22.7154,-28.2365zm132.149,-203.2905l0,-19.3707l-30.3676,0c-32.8505,0 -32.0323,0.2397 -37.5286,-11.032c-4.1004,-8.4097 -13.8119,-14.7952 -22.5014,-14.7952c-8.6887,0 -18.4001,6.3855 -22.5005,14.7952c-5.4964,11.2725 -4.679,11.032 -37.5286,11.032l-30.3676,0l0,19.3707l0,19.3715l90.3967,0l90.3976,0l0,-19.3715z" stroke-width="1.844834" fill="#ffffff"/>
  </g>
 </g>
</svg>