<svg width="94" height="94" xmlns="http://www.w3.org/2000/svg">
 <!-- Created with Method Draw - http://github.com/duopixel/Method-Draw/ -->
 <g>
  <title>background</title>
  <rect fill="none" id="canvas_background" height="96" width="96" y="-1" x="-1"/>
 </g>
 <g>
  <title>Layer 1</title>
  <g id="g6077">
   <g id="svg_5">
    <circle id="svg_1" cx="46.92567" cy="46.925689" r="46.925671" stroke-dashoffset="0" stroke-miterlimit="4.009524" stroke-linecap="round" stroke-width="0.039504" fill="#ff7f2a"/>
    <g id="svg_4" transform="matrix(0.14003035,0,0,0.14003035,-49.582498,-58.238128) ">
     <path d="m766.068437,574.52385c0,-53.8126 -43.62436,-97.437 -97.43694,-97.437c-53.81273,0 -97.43708,43.6244 -97.43708,97.437l0,206.3908c-20.071,22.7445 -32.31051,52.5643 -32.47696,85.243c-0.36441,71.3555 57.637,130.0948 128.99125,130.5901c0.30464,0 0.61921,0 0.92279,0c71.75613,0 129.91592,-58.1616 129.91592,-129.9159c0,-32.9448 -12.26902,-63.0193 -32.47898,-85.92l0,-206.388zm-97.43694,373.5084l-0.58485,0c-44.51639,-0.3082 -80.8391,-37.0908 -80.61175,-81.6238c0.1757,-34.4886 19.55437,-52.425 32.47799,-67.0689l0,-224.8136c0,-26.8629 21.85536,-48.7183 48.71861,-48.7183c26.8629,0 48.71829,21.8554 48.71829,48.7183l0,224.8136c12.81915,14.5263 32.47898,32.6455 32.47898,67.4972c0,44.7724 -36.42518,81.1976 -81.19727,81.1976l0,-0.0021zm64.95796,-81.1976c0,35.875 -29.08291,64.9579 -64.95796,64.9579c-35.8752,0 -64.9581,-29.0829 -64.9581,-64.9579c0,-24.0393 13.06874,-45.0126 32.47912,-56.2462l0,-179.2301c0,-17.9375 14.54145,-33.8537 32.47898,-33.8537c17.93753,0 32.47898,14.5414 32.47898,32.4789l0,180.6049c19.41009,11.2336 32.47898,32.2069 32.47898,56.2462z" id="svg_2" stroke-width="1.014968" fill="#ffffff"/>
     <ellipse ry="8.500466" rx="8.937926" cy="533.98685" cx="813.185925" id="svg_3" stroke-dashoffset="0" stroke-miterlimit="4" stroke-linecap="round" stroke-width="65.659142" stroke="#ffffff" fill="none"/>
    </g>
   </g>
  </g>
 </g>
</svg>